<svg width="92" height="83" viewBox="0 0 92 83" fill="none" xmlns="http://www.w3.org/2000/svg">
<path d="M13.9388 34.4468L2.90057 26.4708L4.78239 24.3834L9.33883 27.6781L13.1722 23.4409L8.61573 20.1461L10.4975 18.0665L21.5358 26.0424L19.654 28.1221L15.0888 24.8274L11.2555 29.0646L15.8206 32.3594L13.9388 34.4468Z" fill="black" fill-opacity="0.4"/>
<path d="M26.0635 23.5723C25.1793 24.1175 24.2819 24.4252 23.3715 24.4914C22.4654 24.5537 21.6051 24.3902 20.7927 24.0007C19.9738 23.6113 19.255 23.0154 18.6321 22.2092C18.0048 21.405 17.6302 20.593 17.5082 19.7713C17.3819 18.9515 17.5082 18.1726 17.8916 17.4345C18.2706 16.6926 18.9 16.0481 19.7821 15.5029C20.6707 14.9537 21.5681 14.6461 22.4742 14.5838C23.3802 14.5214 24.2427 14.685 25.0617 15.0745C25.8806 15.46 26.6037 16.0539 27.231 16.8582C27.8517 17.6643 28.2242 18.4783 28.3461 19.3039C28.4681 20.1257 28.3396 20.9046 27.9628 21.6406C27.5838 22.3786 26.9522 23.0232 26.0635 23.5723ZM24.7742 21.8821C25.3709 21.5082 25.6497 21.0019 25.6105 20.3632C25.5691 19.7206 25.2816 19.0586 24.748 18.377C24.2253 17.6974 23.6329 17.2301 22.9707 16.975C22.313 16.716 21.6857 16.7725 21.0889 17.1463C20.4791 17.5261 20.1959 18.0382 20.2351 18.6808C20.27 19.3195 20.5488 19.9796 21.0715 20.6592C21.6051 21.3407 22.2041 21.81 22.8662 22.069C23.5283 22.3241 24.1643 22.2618 24.7742 21.8821Z" fill="black" fill-opacity="0.4"/>
<path d="M27.8322 8.07129L33.6519 19.6458L30.9599 20.7363L25.1402 9.16175L27.8322 8.07129Z" fill="black" fill-opacity="0.4"/>
<path d="M39.345 18.2364C38.2821 18.4701 37.3107 18.4779 36.4351 18.2598C35.5639 18.0417 34.8255 17.6211 34.2222 16.998C33.6167 16.3748 33.1811 15.5784 32.9067 14.6067C32.6453 13.6526 32.6235 12.7724 32.837 11.9662C33.0461 11.1562 33.473 10.4688 34.1177 9.90214C34.7624 9.33743 35.59 8.94214 36.6006 8.7182C37.5111 8.51569 38.3801 8.5079 39.2056 8.69484C40.0354 8.87788 40.7607 9.26928 41.3836 9.87098C42.0109 10.4746 42.4682 11.3003 42.7601 12.3479L42.9518 13.0489L35.9124 14.5911V14.5989C36.104 15.2844 36.4612 15.7829 36.984 16.0944C37.5111 16.4021 38.1383 16.4741 38.8658 16.3125C39.3406 16.2093 39.7305 16.0282 40.0332 15.7673C40.3338 15.5083 40.5058 15.187 40.5472 14.8014L43.248 14.373C43.2828 15.2766 42.9605 16.0769 42.2809 16.7721C41.6014 17.4633 40.6213 17.9521 39.345 18.2364ZM35.4768 13.0022L39.8154 12.0519C39.6586 11.5028 39.3362 11.0919 38.8484 10.8212C38.3605 10.5525 37.8029 10.4863 37.1756 10.6265C36.5353 10.7667 36.0627 11.0666 35.7556 11.5223C35.4528 11.9799 35.3592 12.4725 35.4768 13.0022Z" fill="black" fill-opacity="0.4"/>
<path d="M47.9589 16.6622L49.8843 4.0907L52.8551 4.45678L52.0623 9.64428L58.0911 10.3765L58.8839 5.18895L61.8548 5.55504L59.9294 18.1265L56.9585 17.7605L57.7513 12.5652L51.7226 11.833L50.9298 17.0283L47.9589 16.6622Z" fill="black" fill-opacity="0.4"/>
<path d="M64.6966 20.3392C63.6969 19.9439 62.928 19.4201 62.3879 18.7659C61.8477 18.1155 61.5472 17.3833 61.4905 16.5616C61.4383 15.7359 61.6386 14.8674 62.0917 13.9522C62.5316 13.0545 63.1132 12.3438 63.8341 11.818C64.5528 11.2942 65.3609 10.9846 66.2561 10.8911C67.1556 10.7938 68.0856 10.934 69.0439 11.3117C69.8977 11.6506 70.5882 12.1179 71.1174 12.7138C71.6445 13.3116 71.9494 14.0184 72.0322 14.8324C72.1193 15.6483 71.9146 16.5518 71.4224 17.543L71.1 18.205L64.4701 15.5801L64.4614 15.5879C64.1412 16.2325 64.0867 16.8225 64.2958 17.356C64.5093 17.8857 64.958 18.2849 65.6375 18.5555C66.0905 18.7366 66.5218 18.8067 66.9356 18.7659C67.3538 18.723 67.7066 18.5633 67.9985 18.2829L70.4379 19.4201C69.8455 20.1465 69.0396 20.6002 68.0246 20.7832C67.014 20.9643 65.9032 20.8163 64.6966 20.3392ZM65.2106 14.0846L69.2966 15.7048C69.5449 15.1809 69.5688 14.6766 69.3663 14.1937C69.1681 13.7108 68.776 13.3564 68.1902 13.1266C67.5847 12.889 67.0053 12.8676 66.4477 13.0643C65.8945 13.2629 65.4829 13.6017 65.2106 14.0846Z" fill="black" fill-opacity="0.4"/>
<path d="M71.6833 23.9057C70.8818 23.3449 70.3786 22.6925 70.1761 21.9506C69.9713 21.2087 70.1957 20.4668 70.8469 19.723C71.3348 19.1622 71.8619 18.8253 72.4325 18.7104C73.0075 18.5974 73.5956 18.6325 74.2011 18.8194C74.8109 19.0064 75.4142 19.2693 76.0132 19.6061C76.7973 20.054 77.3745 20.35 77.7469 20.4941C78.1237 20.6401 78.4177 20.5934 78.6268 20.3539L78.653 20.3227C78.9252 20.0112 79.0276 19.6976 78.9579 19.3802C78.8882 19.0589 78.653 18.7571 78.2522 18.4767C77.8384 18.1866 77.4376 18.0366 77.0499 18.025C76.6601 18.0152 76.3138 18.1087 76.0132 18.3054L73.992 16.6463C74.7521 16.0757 75.6233 15.8129 76.6056 15.8596C77.5923 15.9024 78.5876 16.2705 79.5939 16.9656C80.2146 17.4018 80.7199 17.8984 81.1098 18.4534C81.4975 19.0044 81.6957 19.5828 81.7022 20.1903C81.7131 20.794 81.4605 21.3937 80.9443 21.9896L76.5272 27.0524L74.3143 25.518L75.2204 24.4821L75.1594 24.4353C74.6541 24.6378 74.1009 24.7079 73.5041 24.6456C72.9052 24.5833 72.2975 24.336 71.6833 23.9057ZM73.5999 22.932C74.1096 23.2845 74.6454 23.4422 75.203 23.4072C75.7606 23.3702 76.2136 23.1521 76.5621 22.7529L77.2503 21.9662C77.1109 21.9545 76.9236 21.9039 76.6927 21.8104C76.4662 21.7209 76.231 21.6176 75.9871 21.4989C75.7431 21.3801 75.5253 21.273 75.3337 21.1795C74.885 20.9419 74.4712 20.8134 74.0878 20.7979C73.7045 20.7784 73.3821 20.9127 73.1208 21.2029C72.8703 21.493 72.7984 21.791 72.903 22.0986C73.0119 22.4043 73.2449 22.6828 73.5999 22.932Z" fill="black" fill-opacity="0.4"/>
<path d="M73.7843 29.5341L85.3888 21.5582L87.1661 23.6223L85.746 24.5959L85.8245 24.6894C86.1424 24.627 86.4953 24.6017 86.8786 24.6115C87.262 24.6232 87.654 24.7166 88.0548 24.8919C88.4555 25.0691 88.8345 25.3651 89.196 25.7798C89.6709 26.3367 89.9475 26.9521 90.0237 27.6336C90.1043 28.3191 89.9409 29.022 89.5358 29.7444C89.1351 30.4708 88.4512 31.1659 87.4885 31.8319C86.5476 32.4745 85.635 32.8834 84.7529 33.0548C83.8751 33.2261 83.0714 33.195 82.3396 32.9613C81.6078 32.7276 80.9979 32.3246 80.5101 31.754C80.1616 31.349 79.9394 30.9537 79.8479 30.5701C79.7543 30.1845 79.7456 29.8243 79.8218 29.4874C79.8959 29.1486 80.0069 28.8487 80.1529 28.5839L80.1006 28.5216L75.5877 31.6294L73.7843 29.5341ZM82.932 26.5042C82.1828 27.0222 81.6971 27.5752 81.4771 28.1633C81.2549 28.7552 81.3638 29.3044 81.7995 29.8145C82.2459 30.3286 82.8144 30.5623 83.507 30.5156C84.204 30.4688 84.9206 30.1904 85.6589 29.6821C86.3907 29.1836 86.8656 28.6404 87.0877 28.0542C87.3142 27.472 87.2031 26.9209 86.7566 26.4029C86.321 25.8947 85.7635 25.6552 85.0839 25.6864C84.4044 25.7136 83.6856 25.9862 82.932 26.5042Z" fill="black" fill-opacity="0.4"/>
<path d="M13.0764 33.6758L2.03815 25.6998L3.91997 23.6123L8.4764 26.9071L12.3097 22.6698L7.7533 19.3751L9.63512 17.2954L20.6734 25.2714L18.7916 27.3511L14.2264 24.0563L10.3931 28.2935L14.9582 31.5883L13.0764 33.6758Z" fill="black"/>
<path d="M25.2011 22.8012C24.3168 23.3465 23.4195 23.6541 22.5091 23.7204C21.603 23.7827 20.7427 23.6191 19.9303 23.2296C19.1113 22.8402 18.3926 22.2443 17.7697 21.4382C17.1424 20.6339 16.7678 19.8219 16.6458 19.0002C16.5195 18.1804 16.6458 17.4015 17.0291 16.6635C17.4081 15.9216 18.0376 15.277 18.9197 14.7318C19.8083 14.1827 20.7057 13.875 21.6117 13.8127C22.5178 13.7504 23.3803 13.914 24.1992 14.3034C25.0182 14.689 25.7413 15.2829 26.3685 16.0871C26.9893 16.8933 27.3617 17.7072 27.4837 18.5329C27.6057 19.3546 27.4772 20.1335 27.1004 20.8696C26.7214 21.6076 26.0898 22.2521 25.2011 22.8012ZM23.9117 21.111C24.5085 20.7372 24.7873 20.2309 24.7481 19.5922C24.7067 18.9496 24.4192 18.2875 23.8856 17.606C23.3629 16.9264 22.7704 16.459 22.1083 16.2039C21.4506 15.9449 20.8233 16.0014 20.2265 16.3753C19.6166 16.755 19.3335 17.2671 19.3727 17.9097C19.4076 18.5484 19.6863 19.2086 20.2091 19.8881C20.7427 20.5697 21.3416 21.039 22.0038 21.298C22.6659 21.5531 23.3019 21.4907 23.9117 21.111Z" fill="black"/>
<path d="M26.9698 7.30023L32.7895 18.8747L30.0975 19.9652L24.2778 8.3907L26.9698 7.30023Z" fill="black"/>
<path d="M38.4825 17.4653C37.4196 17.699 36.4482 17.7068 35.5726 17.4887C34.7014 17.2706 33.9631 16.85 33.3597 16.2268C32.7542 15.6037 32.3186 14.8073 32.0442 13.8356C31.7828 12.8814 31.7611 12.0013 31.9745 11.1951C32.1836 10.3851 32.6105 9.69767 33.2552 9.13102C33.8999 8.56631 34.7275 8.17102 35.7381 7.94709C36.6486 7.74457 37.5176 7.73678 38.3431 7.92372C39.1729 8.10676 39.8982 8.49816 40.5211 9.09986C41.1484 9.70351 41.6058 10.5292 41.8976 11.5768L42.0893 12.2778L35.0499 13.82V13.8278C35.2416 14.5132 35.5988 15.0117 36.1215 15.3233C36.6486 15.631 37.2758 15.703 38.0033 15.5414C38.4781 15.4382 38.868 15.2571 39.1707 14.9962C39.4713 14.7372 39.6434 14.4159 39.6847 14.0303L42.3855 13.6019C42.4203 14.5055 42.098 15.3058 41.4184 16.001C40.7389 16.6922 39.7588 17.181 38.4825 17.4653ZM34.6143 12.2311L38.9529 11.2808C38.7961 10.7317 38.4738 10.3208 37.9859 10.0501C37.498 9.7814 36.9404 9.7152 36.3131 9.8554C35.6728 9.9956 35.2002 10.2955 34.8931 10.7511C34.5903 11.2087 34.4967 11.7014 34.6143 12.2311Z" fill="black"/>
<path d="M47.0965 15.8911L49.0219 3.31958L51.9927 3.68566L51.1999 8.87317L57.2287 9.60533L58.0215 4.41783L60.9923 4.78392L59.067 17.3554L56.0961 16.9893L56.8889 11.7941L50.8601 11.0619L50.0673 16.2572L47.0965 15.8911Z" fill="black"/>
<path d="M63.8342 19.5682C62.8345 19.1729 62.0656 18.6491 61.5255 17.9948C60.9853 17.3444 60.6847 16.6122 60.6281 15.7905C60.5758 14.9649 60.7762 14.0964 61.2292 13.1812C61.6692 12.2835 62.2507 11.5727 62.9717 11.047C63.6904 10.5232 64.4985 10.2135 65.3936 10.1201C66.2932 10.0227 67.2232 10.1629 68.1815 10.5407C69.0353 10.8795 69.7257 11.3468 70.255 11.9427C70.7821 12.5405 71.087 13.2474 71.1698 14.0613C71.2569 14.8772 71.0522 15.7808 70.5599 16.7719L70.2376 17.434L63.6077 14.8091L63.5989 14.8169C63.2788 15.4614 63.2243 16.0514 63.4334 16.585C63.6469 17.1146 64.0955 17.5138 64.7751 17.7845C65.2281 17.9656 65.6594 18.0357 66.0732 17.9948C66.4914 17.952 66.8442 17.7923 67.1361 17.5119L69.5755 18.6491C68.983 19.3754 68.1772 19.8291 67.1622 20.0122C66.1516 20.1933 65.0408 20.0453 63.8342 19.5682ZM64.3482 13.3136L68.4342 14.9337C68.6825 14.4099 68.7064 13.9055 68.5039 13.4226C68.3057 12.9397 67.9136 12.5853 67.3277 12.3555C66.7222 12.118 66.1429 12.0965 65.5853 12.2932C65.0321 12.4918 64.6204 12.8307 64.3482 13.3136Z" fill="black"/>
<path d="M70.8209 23.1346C70.0193 22.5738 69.5162 21.9215 69.3137 21.1796C69.1089 20.4377 69.3333 19.6958 69.9845 18.9519C70.4724 18.3911 70.9994 18.0542 71.5701 17.9393C72.1451 17.8264 72.7332 17.8614 73.3387 18.0484C73.9485 18.2353 74.5518 18.4982 75.1508 18.8351C75.9349 19.2829 76.512 19.5789 76.8845 19.723C77.2613 19.8691 77.5553 19.8223 77.7644 19.5828L77.7905 19.5517C78.0628 19.2401 78.1652 18.9266 78.0955 18.6092C78.0258 18.2879 77.7905 17.9861 77.3898 17.7057C76.976 17.4155 76.5752 17.2656 76.1875 17.2539C75.7976 17.2442 75.4513 17.3376 75.1508 17.5343L73.1296 15.8752C73.8897 15.3047 74.7609 15.0418 75.7432 15.0885C76.7298 15.1314 77.7252 15.4994 78.7315 16.1946C79.3522 16.6308 79.8575 17.1273 80.2474 17.6823C80.6351 18.2334 80.8333 18.8117 80.8398 19.4192C80.8507 20.0229 80.598 20.6227 80.0818 21.2185L75.6648 26.2814L73.4519 24.747L74.358 23.711L74.297 23.6643C73.7917 23.8668 73.2385 23.9369 72.6417 23.8746C72.0427 23.8123 71.4351 23.565 70.8209 23.1346ZM72.7375 22.161C73.2472 22.5134 73.783 22.6712 74.3405 22.6361C74.8981 22.5991 75.3512 22.381 75.6996 21.9818L76.3879 21.1952C76.2485 21.1835 76.0612 21.1328 75.8303 21.0394C75.6038 20.9498 75.3686 20.8466 75.1246 20.7278C74.8807 20.609 74.6629 20.5019 74.4712 20.4085C74.0226 20.1709 73.6087 20.0424 73.2254 20.0268C72.8421 20.0073 72.5197 20.1417 72.2584 20.4318C72.0079 20.722 71.936 21.0199 72.0405 21.3276C72.1494 21.6333 72.3825 21.9117 72.7375 22.161Z" fill="black"/>
<path d="M72.9218 28.763L84.5264 20.787L86.3036 22.8511L84.8836 23.8248L84.962 23.9182C85.28 23.8559 85.6328 23.8306 86.0161 23.8404C86.3995 23.852 86.7915 23.9455 87.1923 24.1208C87.593 24.298 87.972 24.5939 88.3336 25.0087C88.8084 25.5656 89.085 26.181 89.1612 26.8625C89.2418 27.5479 89.0784 28.2509 88.6733 28.9733C88.2726 29.6997 87.5887 30.3948 86.626 31.0608C85.6851 31.7034 84.7725 32.1123 83.8904 32.2837C83.0126 32.455 82.2089 32.4239 81.4771 32.1902C80.7453 31.9565 80.1355 31.5534 79.6476 30.9829C79.2991 30.5779 79.0769 30.1826 78.9855 29.799C78.8918 29.4134 78.8831 29.0532 78.9593 28.7163C79.0334 28.3775 79.1444 28.0776 79.2904 27.8128L79.2381 27.7504L74.7252 30.8583L72.9218 28.763ZM82.0695 25.7331C81.3203 26.2511 80.8346 26.8041 80.6146 27.3922C80.3925 27.9841 80.5014 28.5332 80.937 29.0434C81.3835 29.5575 81.9519 29.7912 82.6445 29.7444C83.3415 29.6977 84.0581 29.4193 84.7964 28.911C85.5283 28.4125 86.0031 27.8692 86.2252 27.2831C86.4517 26.7009 86.3407 26.1498 85.8942 25.6318C85.4586 25.1236 84.901 24.8841 84.2214 24.9152C83.5419 24.9425 82.8231 25.2151 82.0695 25.7331Z" fill="black"/>
<mask id="mask0_93_20725" style="mask-type:luminance" maskUnits="userSpaceOnUse" x="19" y="61" width="52" height="21">
<path d="M19.9943 61.1926H70.1761V81.0079H19.9943V61.1926Z" fill="white"/>
</mask>
<g mask="url(#mask0_93_20725)">
<path d="M45.0853 61.1926C31.2678 61.1926 20.0662 65.6285 20.0662 71.1003C20.0662 76.5721 31.2678 81.0079 45.0853 81.0079C58.9027 81.0079 70.1043 76.5721 70.1043 71.1003C70.1043 65.6285 58.9027 61.1926 45.0853 61.1926Z" fill="#292F33"/>
</g>
<path d="M68.4424 72.1343C68.5578 71.7974 68.6319 71.4527 68.6319 71.1003C68.6319 69.227 66.9243 67.566 64.217 66.2146V69.8852C65.8113 70.557 67.2336 71.3106 68.4424 72.1343ZM25.9534 66.2146C23.2461 67.566 21.5385 69.227 21.5385 71.1003C21.5385 71.4527 21.6126 71.7974 21.728 72.1343C22.9368 71.3106 24.3591 70.557 25.9534 69.8852V66.2146Z" fill="#7D8B93"/>
<path d="M45.0852 62.5148C38.0698 62.5148 30.56 63.9149 25.9534 66.2146V69.8852C30.9542 67.7724 37.6778 66.4775 45.0852 66.4775C52.4927 66.4775 59.2163 67.7724 64.2171 69.8852V66.2146C59.6105 63.9149 52.0985 62.5148 45.0852 62.5148Z" fill="#CCD6DD"/>
<mask id="mask1_93_20725" style="mask-type:luminance" maskUnits="userSpaceOnUse" x="38" y="24" width="11" height="26">
<path d="M38.5402 24.7828H48.2303V49.6006H38.5402V24.7828Z" fill="white"/>
</mask>
<g mask="url(#mask1_93_20725)">
<path d="M46.9147 49.3514H41.376L38.5402 26.0758L40.6333 24.8062L44.7106 43.8095L48.0844 48.1596L46.9147 49.3514Z" fill="#D6A309"/>
</g>
<mask id="mask2_93_20725" style="mask-type:luminance" maskUnits="userSpaceOnUse" x="40" y="24" width="12" height="25">
<path d="M40.4243 24.7828H51.0182V48.6036H40.4243V24.7828Z" fill="white"/>
</mask>
<g mask="url(#mask2_93_20725)">
<path d="M48.0844 48.1596H42.6306L40.6334 24.8062H50.8832L48.0844 48.1596Z" fill="#FFC107"/>
</g>
<mask id="mask3_93_20725" style="mask-type:luminance" maskUnits="userSpaceOnUse" x="40" y="51" width="9" height="8">
<path d="M40.4243 51.5946H48.7879V58.8053H40.4243V51.5946Z" fill="white"/>
</mask>
<g mask="url(#mask3_93_20725)">
<path d="M42.1993 58.0654C41.1604 57.415 40.5026 56.3381 40.5026 55.2263C40.4482 52.9071 43.1511 51.7601 45.3858 51.7601C47.6183 51.7601 48.4481 53.686 48.4655 55.4677C48.4721 56.1025 48.5984 56.3576 47.7816 57.2631C46.967 58.1666 45.5644 58.6904 44.7019 58.6904C43.8633 58.6904 42.8244 58.4548 42.1993 58.0634" fill="#D6A309"/>
</g>
<path d="M48.8292 54.9848C48.8292 55.197 48.8053 55.4073 48.7595 55.6138C48.7138 55.8221 48.6463 56.0227 48.557 56.2194C48.4655 56.4141 48.3566 56.601 48.2259 56.7763C48.0952 56.9535 47.9471 57.1151 47.7794 57.265C47.6139 57.415 47.4331 57.5493 47.2371 57.6662C47.0432 57.785 46.8363 57.8843 46.6185 57.9641C46.4029 58.0459 46.1786 58.1063 45.9477 58.1491C45.7168 58.19 45.4838 58.2095 45.2485 58.2095C45.0133 58.2095 44.7824 58.19 44.5516 58.1491C44.3207 58.1063 44.0964 58.0459 43.8786 57.9641C43.6629 57.8843 43.456 57.785 43.26 57.6662C43.0662 57.5493 42.8854 57.415 42.7177 57.265C42.5521 57.1151 42.404 56.9535 42.2734 56.7763C42.1427 56.601 42.0316 56.4141 41.9423 56.2194C41.853 56.0227 41.7833 55.8221 41.7376 55.6138C41.6918 55.4073 41.67 55.197 41.67 54.9848C41.67 54.7725 41.6918 54.5642 41.7376 54.3558C41.7833 54.1475 41.853 53.9469 41.9423 53.7502C42.0316 53.5555 42.1427 53.3686 42.2734 53.1933C42.404 53.0161 42.5521 52.8545 42.7177 52.7046C42.8854 52.5546 43.0662 52.4203 43.26 52.3034C43.456 52.1866 43.6629 52.0873 43.8786 52.0055C44.0964 51.9237 44.3207 51.8633 44.5516 51.8224C44.7824 51.7796 45.0133 51.7601 45.2485 51.7601C45.4838 51.7601 45.7168 51.7796 45.9477 51.8224C46.1786 51.8633 46.4029 51.9237 46.6185 52.0055C46.8363 52.0873 47.0432 52.1866 47.2371 52.3034C47.4331 52.4203 47.6139 52.5546 47.7794 52.7046C47.9471 52.8545 48.0952 53.0161 48.2259 53.1933C48.3566 53.3686 48.4655 53.5555 48.557 53.7502C48.6463 53.9469 48.7138 54.1475 48.7595 54.3558C48.8053 54.5642 48.8292 54.7725 48.8292 54.9848Z" fill="#FFC107"/>
<mask id="mask4_93_20725" style="mask-type:luminance" maskUnits="userSpaceOnUse" x="56" y="30" width="7" height="24">
<path d="M56.0364 30.6577H62.7273V53.0901H56.0364V30.6577Z" fill="white"/>
</mask>
<g mask="url(#mask4_93_20725)">
<mask id="mask5_93_20725" style="mask-type:luminance" maskUnits="userSpaceOnUse" x="51" y="30" width="20" height="32">
<path d="M60.0309 30.4221L70.5508 32.8756L62.3178 61.0933L51.7979 58.6398L60.0309 30.4221Z" fill="white"/>
</mask>
<g mask="url(#mask5_93_20725)">
<mask id="mask6_93_20725" style="mask-type:luminance" maskUnits="userSpaceOnUse" x="51" y="30" width="20" height="32">
<path d="M60.0309 30.4221L70.5508 32.8756L62.3178 61.0933L51.7979 58.6398L60.0309 30.4221Z" fill="white"/>
</mask>
<g mask="url(#mask6_93_20725)">
<path d="M61.0415 52.5936L56.411 51.5128L59.7151 31.5028L61.7755 30.8505L60.5493 47.5307L62.3091 51.8263L61.0415 52.5936Z" fill="#D6A309"/>
</g>
</g>
</g>
<mask id="mask7_93_20725" style="mask-type:luminance" maskUnits="userSpaceOnUse" x="57" y="30" width="14" height="23">
<path d="M57.7091 30.6577H70.5333V52.0931H57.7091V30.6577Z" fill="white"/>
</mask>
<g mask="url(#mask7_93_20725)">
<mask id="mask8_93_20725" style="mask-type:luminance" maskUnits="userSpaceOnUse" x="51" y="30" width="20" height="32">
<path d="M60.0309 30.4221L70.5508 32.8756L62.3178 61.0933L51.7979 58.6398L60.0309 30.4221Z" fill="white"/>
</mask>
<g mask="url(#mask8_93_20725)">
<mask id="mask9_93_20725" style="mask-type:luminance" maskUnits="userSpaceOnUse" x="51" y="30" width="20" height="32">
<path d="M60.0309 30.4221L70.5508 32.8756L62.3178 61.0933L51.7979 58.6398L60.0309 30.4221Z" fill="white"/>
</mask>
<g mask="url(#mask9_93_20725)">
<path d="M62.3091 51.8263L57.7483 50.7612L61.7755 30.8505L70.3438 32.8484L62.3091 51.8263Z" fill="#FFC107"/>
</g>
</g>
</g>
<mask id="mask10_93_20725" style="mask-type:luminance" maskUnits="userSpaceOnUse" x="53" y="54" width="9" height="7">
<path d="M53.806 54.0871H61.0545V60.0691H53.806V54.0871Z" fill="white"/>
</mask>
<g mask="url(#mask10_93_20725)">
<mask id="mask11_93_20725" style="mask-type:luminance" maskUnits="userSpaceOnUse" x="51" y="30" width="20" height="32">
<path d="M60.0309 30.4221L70.5508 32.8756L62.3178 61.0933L51.7979 58.6398L60.0309 30.4221Z" fill="white"/>
</mask>
<g mask="url(#mask11_93_20725)">
<mask id="mask12_93_20725" style="mask-type:luminance" maskUnits="userSpaceOnUse" x="51" y="30" width="20" height="32">
<path d="M60.0309 30.4221L70.5508 32.8756L62.3178 61.0933L51.7979 58.6398L60.0309 30.4221Z" fill="white"/>
</mask>
<g mask="url(#mask12_93_20725)">
<path d="M54.9735 58.9591C54.2634 58.2114 53.9759 57.1852 54.2482 56.2544C54.7665 54.3052 57.3061 53.8729 59.1749 54.3091C61.0414 54.7453 61.2636 56.5153 60.8454 58.0089C60.6951 58.5405 60.7387 58.78 59.8348 59.3758C58.9331 59.9736 57.6328 60.1372 56.9119 59.9697C56.2106 59.8062 55.4003 59.405 54.9735 58.9572" fill="#D6A309"/>
</g>
</g>
</g>
<mask id="mask13_93_20725" style="mask-type:luminance" maskUnits="userSpaceOnUse" x="54" y="54" width="8" height="7">
<path d="M54.9212 54.0871H61.6121V60.0691H54.9212V54.0871Z" fill="white"/>
</mask>
<g mask="url(#mask13_93_20725)">
<mask id="mask14_93_20725" style="mask-type:luminance" maskUnits="userSpaceOnUse" x="51" y="30" width="20" height="32">
<path d="M60.0309 30.4221L70.5508 32.8756L62.3178 61.0933L51.7979 58.6398L60.0309 30.4221Z" fill="white"/>
</mask>
<g mask="url(#mask14_93_20725)">
<mask id="mask15_93_20725" style="mask-type:luminance" maskUnits="userSpaceOnUse" x="51" y="30" width="20" height="32">
<path d="M60.0309 30.4221L70.5508 32.8756L62.3178 61.0933L51.7979 58.6398L60.0309 30.4221Z" fill="white"/>
</mask>
<g mask="url(#mask15_93_20725)">
<path d="M61.2658 57.6759C61.2135 57.8531 61.1438 58.0245 61.0545 58.1881C60.9652 58.3536 60.8607 58.5094 60.7365 58.6554C60.6146 58.8014 60.4773 58.9339 60.3249 59.0565C60.1724 59.1773 60.0091 59.2863 59.8326 59.3778C59.6584 59.4713 59.4733 59.5472 59.2816 59.6076C59.0899 59.668 58.8939 59.7108 58.6914 59.7361C58.491 59.7614 58.2884 59.7692 58.0859 59.7595C57.8833 59.7478 57.6829 59.7206 57.4869 59.6738C57.2909 59.629 57.1014 59.5667 56.9184 59.4869C56.7355 59.407 56.5634 59.3116 56.4022 59.2026C56.2389 59.0916 56.0908 58.9689 55.9579 58.8326C55.8229 58.6963 55.7031 58.5483 55.6007 58.3906C55.4984 58.2328 55.4156 58.0693 55.3481 57.896C55.2827 57.7227 55.2348 57.5455 55.2087 57.3644C55.1804 57.1833 55.1738 57.0022 55.1847 56.8191C55.1978 56.638 55.2305 56.4569 55.2806 56.2797C55.3328 56.1025 55.4025 55.9331 55.4918 55.7676C55.5811 55.6021 55.6879 55.4483 55.8098 55.3022C55.934 55.1562 56.0712 55.0218 56.2215 54.8991C56.3739 54.7784 56.5395 54.6713 56.7137 54.5778C56.8901 54.4863 57.0731 54.4084 57.2647 54.3481C57.4564 54.2877 57.6546 54.2449 57.855 54.2195C58.0575 54.1942 58.2579 54.1864 58.4605 54.1981C58.663 54.2079 58.8634 54.2371 59.0594 54.2819C59.2576 54.3286 59.4471 54.3909 59.6279 54.4707C59.8109 54.5486 59.9829 54.644 60.1463 54.755C60.3075 54.8641 60.4556 54.9868 60.5906 55.125C60.7256 55.2613 60.8432 55.4074 60.9456 55.5651C61.048 55.7228 61.1329 55.8883 61.1983 56.0597C61.2658 56.233 61.3115 56.4102 61.3398 56.5913C61.366 56.7724 61.3747 56.9535 61.3616 57.1365C61.3486 57.3196 61.3181 57.4987 61.2658 57.6759Z" fill="#FFC107"/>
</g>
</g>
</g>
<mask id="mask16_93_20725" style="mask-type:luminance" maskUnits="userSpaceOnUse" x="19" y="32" width="15" height="22">
<path d="M19.7939 32.1531H33.7333V53.0901H19.7939V32.1531Z" fill="white"/>
</mask>
<g mask="url(#mask16_93_20725)">
<mask id="mask17_93_20725" style="mask-type:luminance" maskUnits="userSpaceOnUse" x="19" y="30" width="20" height="32">
<path d="M19.9943 32.8113L30.5207 30.3753L38.6971 58.6067L28.1706 61.0427L19.9943 32.8113Z" fill="white"/>
</mask>
<g mask="url(#mask17_93_20725)">
<mask id="mask18_93_20725" style="mask-type:luminance" maskUnits="userSpaceOnUse" x="19" y="30" width="20" height="32">
<path d="M19.9943 32.8113L30.5207 30.3753L38.6971 58.6067L28.1706 61.0427L19.9943 32.8113Z" fill="white"/>
</mask>
<g mask="url(#mask18_93_20725)">
<path d="M32.9514 51.7387L28.3188 52.8097L20.308 33.894L21.7498 32.4258L29.765 47.5307L33.6419 50.5158L32.9514 51.7387Z" fill="#D6A309"/>
</g>
</g>
</g>
<mask id="mask19_93_20725" style="mask-type:luminance" maskUnits="userSpaceOnUse" x="21" y="30" width="13" height="22">
<path d="M21.4667 30.1592H33.7333V51.5946H21.4667V30.1592Z" fill="white"/>
</mask>
<g mask="url(#mask19_93_20725)">
<mask id="mask20_93_20725" style="mask-type:luminance" maskUnits="userSpaceOnUse" x="19" y="30" width="20" height="32">
<path d="M19.9943 32.8113L30.5207 30.3753L38.6971 58.6067L28.1706 61.0427L19.9943 32.8113Z" fill="white"/>
</mask>
<g mask="url(#mask20_93_20725)">
<mask id="mask21_93_20725" style="mask-type:luminance" maskUnits="userSpaceOnUse" x="19" y="30" width="20" height="32">
<path d="M19.9943 32.8113L30.5207 30.3753L38.6971 58.6067L28.1706 61.0427L19.9943 32.8113Z" fill="white"/>
</mask>
<g mask="url(#mask21_93_20725)">
<path d="M33.6419 50.5158L29.0789 51.5712L21.7498 32.4258L30.3225 30.4415L33.6419 50.5158Z" fill="#FFC107"/>
</g>
</g>
</g>
<mask id="mask22_93_20725" style="mask-type:luminance" maskUnits="userSpaceOnUse" x="28" y="53" width="8" height="8">
<path d="M28.7151 53.5886H35.9636V60.5675H28.7151V53.5886Z" fill="white"/>
</mask>
<g mask="url(#mask22_93_20725)">
<mask id="mask23_93_20725" style="mask-type:luminance" maskUnits="userSpaceOnUse" x="19" y="30" width="20" height="32">
<path d="M19.9943 32.8113L30.5207 30.3753L38.6971 58.6067L28.1706 61.0427L19.9943 32.8113Z" fill="white"/>
</mask>
<g mask="url(#mask23_93_20725)">
<mask id="mask24_93_20725" style="mask-type:luminance" maskUnits="userSpaceOnUse" x="19" y="30" width="20" height="32">
<path d="M19.9943 32.8113L30.5207 30.3753L38.6971 58.6067L28.1706 61.0427L19.9943 32.8113Z" fill="white"/>
</mask>
<g mask="url(#mask24_93_20725)">
<path d="M31.1176 59.9386C30.0917 59.5959 29.2815 58.8248 29.0114 57.892C28.4037 55.9642 30.3879 54.4824 32.2545 54.0481C34.1232 53.6158 35.2841 55.0666 35.7306 56.5523C35.8896 57.082 36.0573 57.2728 35.5934 58.1861C35.1295 59.1013 34.084 59.8101 33.3609 59.9775C32.6618 60.1411 31.7339 60.1431 31.1176 59.9386Z" fill="#D6A309"/>
</g>
</g>
</g>
<mask id="mask25_93_20725" style="mask-type:luminance" maskUnits="userSpaceOnUse" x="29" y="53" width="8" height="7">
<path d="M29.2727 53.5886H36.5212V59.5705H29.2727V53.5886Z" fill="white"/>
</mask>
<g mask="url(#mask25_93_20725)">
<mask id="mask26_93_20725" style="mask-type:luminance" maskUnits="userSpaceOnUse" x="19" y="30" width="20" height="32">
<path d="M19.9943 32.8113L30.5207 30.3753L38.6971 58.6067L28.1706 61.0427L19.9943 32.8113Z" fill="white"/>
</mask>
<g mask="url(#mask26_93_20725)">
<mask id="mask27_93_20725" style="mask-type:luminance" maskUnits="userSpaceOnUse" x="19" y="30" width="20" height="32">
<path d="M19.9943 32.8113L30.5207 30.3753L38.6971 58.6067L28.1706 61.0427L19.9943 32.8113Z" fill="white"/>
</mask>
<g mask="url(#mask27_93_20725)">
<path d="M35.9157 56.0791C35.968 56.2563 35.9985 56.4355 36.0116 56.6185C36.0225 56.8016 36.0159 56.9827 35.9876 57.1638C35.9593 57.3448 35.9114 57.522 35.846 57.6954C35.7785 57.8667 35.6936 58.0322 35.5912 58.19C35.4888 58.3477 35.3712 58.4937 35.2362 58.63C35.1012 58.7663 34.953 58.889 34.7897 59C34.6285 59.1091 34.4565 59.2045 34.2735 59.2824C34.0905 59.3622 33.9011 59.4245 33.7029 59.4693C33.5068 59.516 33.3086 59.5433 33.1039 59.553C32.9013 59.5628 32.701 59.555 32.4984 59.5297C32.298 59.5044 32.0998 59.4615 31.9082 59.4012C31.7165 59.3388 31.5335 59.2629 31.3571 59.1694C31.1829 59.076 31.0195 58.9689 30.8671 58.8481C30.7146 58.7255 30.5774 58.5911 30.4554 58.4451C30.3334 58.299 30.2267 58.1432 30.1396 57.9777C30.0503 57.8141 29.9806 57.6428 29.9283 57.4656C29.8782 57.2884 29.8456 57.1092 29.8347 56.9262C29.8216 56.7431 29.8303 56.5621 29.8586 56.381C29.8848 56.1999 29.9327 56.0227 30.0002 55.8494C30.0655 55.678 30.1505 55.5125 30.2529 55.3547C30.3552 55.197 30.475 55.051 30.6101 54.9147C30.7451 54.7784 30.8932 54.6557 31.0544 54.5447C31.2177 54.4356 31.3898 54.3422 31.5727 54.2623C31.7557 54.1825 31.9452 54.1202 32.1412 54.0754C32.3372 54.0287 32.5376 54.0014 32.7402 53.9917C32.9427 53.9819 33.1453 53.9897 33.3457 54.015C33.5482 54.0403 33.7442 54.0832 33.9359 54.1436C34.1276 54.2059 34.3127 54.2818 34.4869 54.3753C34.6612 54.4687 34.8267 54.5758 34.977 54.6966C35.1295 54.8193 35.2667 54.9536 35.3887 55.0997C35.5128 55.2457 35.6173 55.4015 35.7066 55.567C35.7959 55.7306 35.8656 55.9019 35.9157 56.0791Z" fill="#FFC107"/>
</g>
</g>
</g>
</svg>
